<svg xmlns="http://www.w3.org/2000/svg" width="324" height="324" viewBox="0 0 324 324" fill="none">
    <path opacity="0.9"
        d="M303 196.45V229.764H139.728C108.325 229.76 78.2104 217.282 56.0069 195.075C33.8034 172.868 21.33 142.752 21.33 111.349V21.332H94.8631V133.408C94.8631 150.127 101.505 166.163 113.328 177.985C125.15 189.808 141.185 196.45 157.905 196.45H303Z"
        fill="#0D3A27" />
    <path opacity="0.8"
        d="M303 128.397V161.711H167.788C162.325 161.711 156.914 160.635 151.867 158.544C146.819 156.452 142.233 153.388 138.37 149.524C134.507 145.66 131.443 141.073 129.353 136.025C127.263 130.977 126.188 125.566 126.189 120.103V21.332H195.553V84.7301C195.551 96.3189 200.152 107.434 208.344 115.631C216.536 123.828 227.648 128.436 239.237 128.44L303 128.397Z"
        fill="#0D3A27" />
    <path
        d="M303 264.815V303.028H21.33V200.236C25.8547 206.619 39.4462 220.367 60.0636 233.525C71.0046 240.491 82.6735 246.243 94.8631 250.677C105.063 254.422 115.536 257.377 126.189 259.518C141.439 262.607 156.925 264.385 172.478 264.833L303 264.815Z"
        fill="#0D3A27" />
    <path opacity="0.7"
        d="M303 21.332V95.4643H259.386C250.762 95.4643 242.491 92.0386 236.394 85.9408C230.296 79.8429 226.87 71.5725 226.87 62.9489V21.332H303Z"
        fill="#0D3A27" />
</svg>